<svg xmlns="http://www.w3.org/2000/svg" width="500" height="90" viewBox="0 0 2009.41 342.3"><defs><style>.cls-1{fill:#050505;}</style></defs><g id="图层_2" data-name="图层 2"><g id="图层_4" data-name="图层 4"><path class="cls-1" d="M834.82,175.82v6.23l216.59,9a643.45,643.45,0,0,0,83-1.83c76.61-6.78,195.49-7.13,195.49-7.13v-6.23Z" transform="translate(-51.59 -95.77)"/><path class="cls-1" d="M1767.8,356.65a1.81,1.81,0,0,1,.15,1.21c-4.25,18.69-7.43,37.72-11.62,56.69h151.23l-5.14-7.16c-151.1,0-132.69-51.78-123.82-67.25Z" transform="translate(-51.59 -95.77)"/><path class="cls-1" d="M1660,173.85V184L1782.51,189a641.55,641.55,0,0,0,83-1.83c76.62-6.77,195.49-7.13,195.49-7.13v-6.23Z" transform="translate(-51.59 -95.77)"/><path class="cls-1" d="M1617.12,140.89a336.46,336.46,0,0,1,24.46,38.05,272.4,272.4,0,0,1,17.82,39.51h12.06V163.21L1632.1,129C1627,132.87,1621.86,136.78,1617.12,140.89Z" transform="translate(-51.59 -95.77)"/><path class="cls-1" d="M1919,95.77s-39.31,41.27-100.68,68a282.62,282.62,0,0,1-34.85,12.59,84.39,84.39,0,0,0,7.08,9.14h42.16l98-89.76Z" transform="translate(-51.59 -95.77)"/><path class="cls-1" d="M1124.42,231.89s27-34.36,64.36-13.6-10.3-13.6-10.3-13.6l-43.76-14.31,5.15,10Z" transform="translate(-51.59 -95.77)"/><path class="cls-1" d="M1133.3,187.8s-53.34,143-133.74,212.06c-7.27,6.24-22.28,8-33.62,4.07L935.21,393.2c-2.66,4.93,24.59,16.65,41.82,23.47a129.44,129.44,0,0,1-37.71,16.68c.08.46.14.91.18,1.36h100.83L1146,187.8Z" transform="translate(-51.59 -95.77)"/><path class="cls-1" d="M1455.66,394.38a.85.85,0,0,1,.14.79c-4.22,12.22-7.36,24.67-11.52,37.08h150l-5.11-4.68c-149.8,0-131.55-33.87-122.76-44Z" transform="translate(-51.59 -95.77)"/><path class="cls-1" d="M1379.28,175.26v6.23l216.59,9a643.3,643.3,0,0,0,83-1.84c76.62-6.77,195.49-7.13,195.49-7.13v-6.23Z" transform="translate(-51.59 -95.77)"/><path class="cls-1" d="M1565.07,307.24s-52.23,55.48-134.21,91.57a377.62,377.62,0,0,1-46.58,17,112.57,112.57,0,0,0,9.59,12.22l56.52-.15L1580.84,307.2Z" transform="translate(-51.59 -95.77)"/><path class="cls-1" d="M1509.28,174.46s59.2,12.16,59.2,51.53V178Z" transform="translate(-51.59 -95.77)"/><path class="cls-1" d="M318.67,206.9s-11.82-6.44-27,0l15.21-19.32Z" transform="translate(-51.59 -95.77)"/><path class="cls-1" d="M548.3,273s-2.87,13,6.22,20.79c7.57,6.5,26.75,8,32.1,8H547.78Z" transform="translate(-51.59 -95.77)"/><path class="cls-1" d="M549.07,357.91s-7.14,32.34,15.45,51.69c18.84,16.14,66.5,19.88,79.8,19.88H547.78Z" transform="translate(-51.59 -95.77)"/><path class="cls-1" d="M164.88,407.88s-15.47,9.43-25.77,6.57-77.23-78-77.23-78H51.59l56.76,86.19c6.11,9.27,22,15.44,39.73,15.44h11" transform="translate(-51.59 -95.77)"/><path class="cls-1" d="M446.1,175.88v6.23l177.45,11.27a16,16,0,0,1,2.91-.26h85.65c68-10.53,229.08-11,229.08-11v-6.23Z" transform="translate(-51.59 -95.77)"/><path class="cls-1" d="M694.52,240.47h-9.76l-14,54.16a27.42,27.42,0,0,0,2.87,20.76c10.62,19.16,11.18,48.89,11.18,48.89h9.76Z" transform="translate(-51.59 -95.77)"/><path class="cls-1" d="M112.15,175.88V184l148.43,9.43a15.86,15.86,0,0,1,2.9-.26h85.66c68-10.53,229.08-11,229.08-11v-6.23Z" transform="translate(-51.59 -95.77)"/><path class="cls-1" d="M476.28,437.19c-.64-1.63-1.7-3.24-2.27-4.44a42.5,42.5,0,0,1-2.26-5.43c-85.5-22.7-142.46-71.73-142.46-71.73H316.1L426,438.07h48.56A17.47,17.47,0,0,0,476.28,437.19Z" transform="translate(-51.59 -95.77)"/><path class="cls-1" d="M342,235.53S277.4,343.25,187.39,357.23a5.43,5.43,0,0,1,.13.68h80.39l84.23-122.38Z" transform="translate(-51.59 -95.77)"/><path class="cls-1" d="M380.46,305.67s10.29,52.24-39.91,52.24H416.5Z" transform="translate(-51.59 -95.77)"/><path class="cls-1" d="M644.63,305.24h33c.79,0,1.43-.23,1.43-.51V283.56c0-.57-2.22-.71-2.78-.17l-5.2,5c-6.84,6.61-19.76,12.21-36.67,15.87h0c-1.24.27-.7.95.75.95Z" transform="translate(-51.59 -95.77)"/><path d="M465.42,437c-7.75,0-12.52-2.87-15-9l-.13-.31L409.46,361.1H202.25L175,405.8c-2.18,3.4-4.48,7.22-6.76,11.28-2.18,3.88-4.37,7.41-6.49,10.48a29.11,29.11,0,0,1-6.76,7,13.13,13.13,0,0,1-8,2.4c-5.09,0-8.78-.92-10.66-2.65-.41-.39-.69-2.95,3.36-9.47l141.9-230c3.67-6.33,11.73-9.54,24-9.54,13.12,0,21.63,3.21,25.31,9.54L472.77,425.3l0,.07a36.12,36.12,0,0,1,3,5.37,4.86,4.86,0,0,1,.42,3.2c-.05.22-.23,1-1.91,1.8C473.41,436.21,471,437,465.42,437Zm-258-83.89H405L306.19,191.52Z" transform="translate(-51.59 -95.77)"/><path d="M549.05,432.9c-18.75,0-18.75-6.79-18.75-9V198.81c0-2.23,0-9,18.75-9h97c43.76,0,76.7,5.37,97.9,16,20.57,10.28,30.57,24.8,30.57,44.41,0,10.68-5.72,20.23-17.49,29.18-12.11,9.22-29.4,15.6-51.37,18.95l.27,7.94c34,2.91,60.61,9.62,79,20,17.76,10,26.39,22.48,26.39,38.18,0,21.19-10.81,37.45-33.05,49.69-22.71,12.51-54.36,18.85-94.08,18.85Zm4-7.62H663.46c42.31,0,73.81-4.57,93.65-13.57,20.86-9.46,31.45-24.52,31.45-44.75,0-20.58-12.91-36-38.36-45.77-24.23-9.31-59.26-14-104.14-14h-93Zm0-125.74h93c32.54,0,58.31-4.19,76.58-12.45,19.32-8.73,29.12-21.53,29.12-38.06s-9.42-29.43-28-38.56c-17.66-8.66-43.8-13.05-77.7-13.05h-93Z" transform="translate(-51.59 -95.77)"/><path d="M1066,437.34c-32.46,0-61.11-3.63-85.16-10.8s-44.12-16.87-59.94-28.93-27.59-25.82-35.31-41.2A107.52,107.52,0,0,1,874,307.79a105.39,105.39,0,0,1,11.94-48.4c7.93-15.5,19.93-29.44,35.66-41.42s36-21.78,59.94-28.92S1034,178.24,1066,178.24s60.31,3.7,84.14,11,43.94,17,60,29,28,25.71,36,41.2a105.51,105.51,0,0,1,11.94,48.4,108.63,108.63,0,0,1-11.63,48.81c-7.71,15.48-19.58,29.34-35.29,41.19s-36,21.61-59.95,28.75S1098.43,437.34,1066,437.34Zm0-250.73c-28.36,0-53.42,3.38-74.47,10s-38.89,15.82-52.82,27.12S914,248.21,906.84,262.68a101.27,101.27,0,0,0-10.78,45.11,104.85,104.85,0,0,0,10.42,45.44c6.93,14.51,17.55,27.5,31.57,38.61s31.81,20,53.14,26.72,46.41,10,74.79,10c26.1,0,49.87-2.86,70.63-8.51s38.85-13.76,53.44-24c14.75-10.38,26.09-23.13,33.7-37.9s11.49-31.33,11.49-49.26a106,106,0,0,0-10.42-45.61c-6.91-14.61-17.53-27.78-31.54-39.15s-31.71-20.49-52.81-27.3S1094.37,186.61,1066,186.61Z" transform="translate(-51.59 -95.77)"/><path d="M1772.76,413c-8.33,0-10-1.33-10-1.38-.23-.21-1.36-1.48-1.36-6.52v-221h22.78v221c0,4.91-.94,6.37-1.18,6.65S1780.69,413,1772.76,413Z" transform="translate(-51.59 -95.77)"/><path d="M1415.33,435.27c-25,0-48.18-2.1-68.79-6.24s-38.3-9.89-52.86-17.14c-14.33-7.13-25.45-15.76-33.08-25.65-7.43-9.65-11.21-20.35-11.21-31.78V189.65c0-3.57,1.31-5,2.3-5.76,1.8-1.4,5-2.14,9.09-2.14,11.39,0,11.39,5.34,11.39,7.9v136.9a146.62,146.62,0,0,0,5.17,40c3.55,12.52,10.73,23.38,21.35,32.29,10.46,8.79,25.29,15.64,44.08,20.35,18.5,4.65,43.14,7,73.23,7,45,0,80-6.15,103.84-18.29,24.76-12.59,37.32-30.81,37.32-54.16V189.65c0-3.57,1.31-5,2.29-5.76,1.81-1.4,5-2.14,9.1-2.14,11.38,0,11.38,5.34,11.38,7.9V354.46a51.66,51.66,0,0,1-11.21,32.15c-7.62,9.89-18.64,18.52-32.76,25.66-14.32,7.24-31.87,12.94-52.16,16.94S1440.38,435.27,1415.33,435.27Z" transform="translate(-51.59 -95.77)"/></g></g></svg>