<svg xmlns="http://www.w3.org/2000/svg" width="490" height="70" viewBox="0 0 2450 328.01"><defs><style>.cls-1{fill:#050505;}</style></defs><g id="图层_2" data-name="图层 2"><g id="图层_2-2" data-name="图层 2"><path class="cls-1" d="M1529.37,238.9s-6.83,33.28,14.78,53.19c18,16.61,63.62,20.46,76.34,20.46h-92.35Z"/><path class="cls-1" d="M1529.37,111.5s-6.83,33.28,14.78,53.19c18,16.61,63.62,20.46,76.34,20.46h-92.35Z"/><path class="cls-1" d="M1729.8,184.69S1649.23,299,1537,313.79a5.65,5.65,0,0,1,.17.71h100.22l105-129.81Z"/><path class="cls-1" d="M1676.58,49.68c-24.34,7.14-51.14,14.13-80.08,20.42-26.06,5.67-53.87,10.76-83.14,14.89V95.06h116.26l72-32.88C1693.47,57.88,1685.23,53.63,1676.58,49.68Z"/><path class="cls-1" d="M1816.9,141.36s-3.43,27.11,7.43,43.32c9.06,13.54,32,16.67,38.39,16.67h-46.44Z"/><path class="cls-1" d="M1673.44,50.13v6.41l207.21,9.22a573,573,0,0,0,79.41-1.88c73.3-7,187-7.34,187-7.34V50.13Z"/><path class="cls-1" d="M1989.59,78.74s-50.42,57-129.14,93.86a349,349,0,0,1-44.7,17.38,114.43,114.43,0,0,0,9.08,12.6h54.07L2004.68,78.74Z"/><path class="cls-1" d="M1924.31,222s-14.77,23.3-28.42,44.61c-21.18,33.07-60.67,29.39-77.36-8-.35-.79-.7-1.59-1-2.4-1.54,5.55-3.91,10-7.12,12.32-3.54,2.56-7.36,2.45-11.11,1.64q-1.29,24.23-2.69,48.47h89.18L1929.57,222Z"/><path class="cls-1" d="M2208.37,268.44a2.06,2.06,0,0,1,.14,1.25c-4.07,19.22-7.1,38.81-11.12,58.32h144.69l-4.93-7.36c-144.54,0-126.93-53.29-118.45-69.2Z"/><path class="cls-1" d="M2066.36,84.74V95.16l117.21,5.22A571.44,571.44,0,0,0,2263,98.49c73.3-7,187-7.34,187-7.34V84.74Z"/><path class="cls-1" d="M2025.35,46.43a349.17,349.17,0,0,1,23.4,39.15,291.29,291.29,0,0,1,17.05,40.65h11.53V69.39l-37.65-35.21C2034.75,38.17,2029.89,42.2,2025.35,46.43Z"/><path class="cls-1" d="M2353,0s-37.61,42.47-96.32,70a258.81,258.81,0,0,1-33.34,13,84.89,84.89,0,0,0,6.78,9.4h40.33L2364.24,0Z"/><path class="cls-1" d="M183,310.73c-20.08-6-36.28-14.81-51.72-24.22C130.31,310.56,0,314.91,0,314.91v5H219.18l-.81-.35C206.23,317.15,194.4,314.15,183,310.73Z"/><path class="cls-1" d="M348.57,87.1c-18.38-6-33.22-14.81-47.36-24.22C300.34,86.93,181,91.28,181,91.28v5H381.73l-.75-.35A328.59,328.59,0,0,1,348.57,87.1Z"/><path class="cls-1" d="M303.06,126.23S233.12,294.11,135.69,315.91c.06.35.12.7.15,1.06h87L314,126.23Z"/><path class="cls-1" d="M1313.38,310.73c-20.07-6-36.27-14.81-51.71-24.22-1,24.05-131.27,28.4-131.27,28.4v5h219.19l-.81-.35C1336.64,317.15,1324.8,314.15,1313.38,310.73Z"/><path class="cls-1" d="M1479,87.1c-18.38-6-33.22-14.81-47.35-24.22-.87,24.05-120.2,28.4-120.2,28.4v5h200.71l-.74-.35A328,328,0,0,1,1479,87.1Z"/><path class="cls-1" d="M1433.47,126.23s-70,167.88-167.38,189.68a9.32,9.32,0,0,1,.15,1.06h87l91.15-190.74Z"/><path class="cls-1" d="M1100.85,279.41s10.12,1.35,13.55,4.42c4.92,4.41,19.7,1.56,19.7-4.42v25l-17.24-6.63Z"/><path class="cls-1" d="M858.29,269.58s-13.36-1.37-20.95-4.9c-22.17-10.31-51.28-89.84-51.28-89.84h-7.22l39.81,114.29c4.28,12.3,15.41,20.47,27.86,20.47h7.71"/><path class="cls-1" d="M999.46,238.17S952.83,274.4,880,297.89a401.83,401.83,0,0,1-94.16,18.64,2.78,2.78,0,0,1,.19.44h111l116.33-78.8Z"/><path class="cls-1" d="M858.27,152.74s4.92-76.58,69-26.51,65.26,58.18,65.26,58.18L862,67.32,852.11,71Z"/><path class="cls-1" d="M1134.1,215.34s-4.93,76.59-69,26.51-65.26-58.18-65.26-58.18L1130.4,300.76l9.85-3.68Z"/><path class="cls-1" d="M341.09,49.39V55.8L548.3,65a571.41,571.41,0,0,0,79.41-1.89c73.3-7,187-7.34,187-7.34V49.39Z"/><path class="cls-1" d="M634.16,107.09s25.86-35.35,61.57-14-9.85-14-9.85-14L644,64.37l4.93,10.31Z"/><path class="cls-1" d="M643.88,64.37s-51,147.13-127.94,218.2c-7,6.43-21.32,8.27-32.16,4.2l-29.4-11c-2.55,5.07,23.52,17.12,40,24.14-11.57,7.88-23.62,13.82-36.07,17.17.07.46.13.93.17,1.4h96.46L656,64.37Z"/><path d="M266.74,323.84c-31.53,0-60.39-3.12-85.78-9.27s-47-15.07-64.68-26.63-31.2-25.63-40.65-42.09S61.44,210.68,61.44,190c0-16.07,4.56-32.21,13.56-48s22-30.32,38.32-42.82S150,76.4,173.58,68.66,223.79,57,252.66,57c48.13,0,90.53,9.74,126,29,8.22,4.94,8.86,8,8.86,8.77,0,3-7.05,3.27-10.08,3.27-2,0-6.25-.81-15.42-4.66-8-3.35-17.62-7.1-28.65-11.17a339.77,339.77,0,0,0-37.89-11.23,192.77,192.77,0,0,0-44.78-5.09c-25.1,0-48.17,3.75-68.57,11.15s-38.1,17.07-52.67,28.78-26.16,25.15-34.27,39.84S82.89,175.37,82.89,190c0,19.51,4.48,37.24,13.32,52.7s21.39,28.67,37.41,39.42,35.36,19,57.9,24.68c22.39,5.66,47.7,8.54,75.22,8.54,36.39,0,68.5-7.91,95.46-23.51,7.42-4.21,13.43-6.35,17.84-6.35a11.57,11.57,0,0,1,7.2,2.08c1.52,1.13,2.14,2,2.23,2.59-.21.45-1.51,2.6-8.61,6.85-6.78,4-16,8.12-27.42,12.09a287.66,287.66,0,0,1-40.08,10.38A249.78,249.78,0,0,1,266.74,323.84Z"/><path d="M1397.15,323.84c-31.53,0-60.4-3.12-85.79-9.27s-47-15.07-64.68-26.63-31.19-25.63-40.64-42.09-14.19-35.17-14.19-55.81c0-16.07,4.56-32.21,13.55-48s22-30.32,38.32-42.82,36.7-22.84,60.26-30.58S1354.19,57,1383.07,57c48.12,0,90.53,9.74,126,29,8.22,4.94,8.86,8,8.86,8.77,0,3-7,3.27-10.08,3.27-2,0-6.25-.81-15.41-4.66-8-3.35-17.62-7.1-28.65-11.17a340.61,340.61,0,0,0-37.9-11.23,192.74,192.74,0,0,0-44.77-5.09c-25.11,0-48.18,3.75-68.57,11.15s-38.1,17.07-52.67,28.78-26.17,25.15-34.28,39.84-12.34,29.76-12.34,44.43c0,19.51,4.48,37.24,13.33,52.7s21.39,28.67,37.4,39.42,35.36,19,57.9,24.68c22.39,5.66,47.7,8.54,75.23,8.54,36.38,0,68.5-7.91,95.45-23.51,7.42-4.21,13.44-6.35,17.84-6.35a11.62,11.62,0,0,1,7.21,2.08c1.51,1.13,2.13,2,2.22,2.59-.21.45-1.51,2.6-8.6,6.85-6.79,4-16,8.12-27.43,12.09a287.29,287.29,0,0,1-40.08,10.38A249.68,249.68,0,0,1,1397.15,323.84Z"/><path d="M1531.09,316.18c-9.3,0-13.42-1-15.24-1.9-2.09-1-2.52-4.63-2.52-7.49V94l2.34-.06c6.27-.18,12.7-.36,19.1-.58v89.24h196.66c9,0,12.94.72,14.71,1.32,1,.33,1.77.79,1.77,3.1,0,1.2-.26,1.82-1.77,2.34-1.76.6-5.74,1.32-14.71,1.32H1534.77V308.11h174.9c6,0,12.45-.13,19-.39,2.59-.1,5.11-.15,7.48-.15,3.56,0,6.92.11,10,.33a51.21,51.21,0,0,1,12.14,2.1c2.39.81,2.39,1.65,2.39,2.14,0,2.16-.77,2.54-1.87,2.85-1.95.55-6,1.19-14.61,1.19Z"/><path d="M1137.11,314.05c-7.14,0-13.79-2.92-20.34-8.91L863,76.71V305.8c0,4.28-1.29,8.25-10.72,8.25s-10.72-4-10.72-8.25V63.88c0-4.69,1.22-9,10.08-9,4.7,0,8.25.8,10.55,2.37,2.87,2,6,4.22,9.31,6.68l254.25,230.24v-231c0-3.17.59-5.43,1.7-6.55.41-.39,2.19-1.7,8.38-1.7,6.77,0,9,1.23,9.6,1.75,1.13,1,1.76,3.26,1.76,6.5V304.65C1147.19,311.32,1144.27,314.05,1137.11,314.05Z"/><path d="M578.25,318.61c-31,0-58.38-3.73-81.35-11.1s-42.14-17.33-57.25-29.72-26.4-26.58-33.79-42.42a117.79,117.79,0,0,1-11.15-50.18,115.42,115.42,0,0,1,11.45-50c7.6-16,19.09-30.32,34.13-42.64s34.37-22.38,57.25-29.72,50.13-11.1,80.71-11.1,57.61,3.8,80.36,11.28,42,17.48,57.32,29.76,26.81,26.46,34.41,42.42a115.55,115.55,0,0,1,11.45,50,119.07,119.07,0,0,1-11.15,50.38c-7.38,15.94-18.74,30.21-33.77,42.4s-34.4,22.21-57.27,29.54S609.25,318.61,578.25,318.61Zm0-258c-27.18,0-51.2,3.49-71.38,10.36s-37.27,16.31-50.62,28a118.91,118.91,0,0,0-30.45,40,110.28,110.28,0,0,0-10.29,46.26,114.13,114.13,0,0,0,9.95,46.6,111.73,111.73,0,0,0,30.18,39.7C469,282.88,486.13,292.15,506.57,299s44.48,10.36,71.68,10.36c25,0,47.79-3,67.69-8.78s37.23-14.18,51.22-24.76a106.38,106.38,0,0,0,32.23-39c7.27-15.14,11-32.15,11-50.53a114.06,114.06,0,0,0-40.1-87c-13.36-11.65-30.38-21.11-50.6-28.13S605.46,60.61,578.25,60.61Z"/><path d="M1809.38,315.52c-6.64,0-8.78-1.36-9.39-1.95-1.31-1.25-2-3.36-2-6.3V71.09c0-4,.83-6.77,2.32-7.74,1-.61,4.38-2,15.44-2h107.53c43,0,75.94,6.45,97.85,19.17,21.48,12.5,31.93,30.33,31.93,54.54,0,23.43-10.76,41.08-32.9,54-22.52,13.1-55.12,19.74-96.88,19.74H1819.46v98.55C1819.46,311.56,1818.24,315.52,1809.38,315.52Zm10.08-114.87h103.85c36.84,0,64.23-5.22,81.42-15.5,17.86-10.68,26.92-27.42,26.92-49.75,0-43.55-36.45-65.63-108.34-65.63H1819.46Z"/><path d="M2213.11,326.57c-7.78,0-9.31-1.3-9.37-1.36-.23-.22-1.35-1.58-1.35-6.89V90.79h21.44V318.32c0,5.15-.93,6.71-1.17,7S2220.48,326.57,2213.11,326.57Z"/></g></g></svg>