<svg xmlns="http://www.w3.org/2000/svg" width="420" height="100" viewBox="0 0 2060.6 464.16"><defs><style>.cls-1{fill:#050505;}</style></defs><g id="图层_2" data-name="图层 2"><g id="图层_4" data-name="图层 4"><path class="cls-1" d="M934.47,1413.68s-2.87,21.09,6.22,33.71c7.59,10.54,26.78,13,32.13,13H934Z" transform="translate(-4 -1327.19)"/><path class="cls-1" d="M813.33,1341.65v5l173.45,7.18a516.83,516.83,0,0,0,66.47-1.47c61.35-5.43,156.54-5.71,156.54-5.71v-5Z" transform="translate(-4 -1327.19)"/><path class="cls-1" d="M1078,1364s-42.2,44.31-108.09,73a304.23,304.23,0,0,1-37.42,13.53,88.2,88.2,0,0,0,7.6,9.8h45.26L1090.6,1364Z" transform="translate(-4 -1327.19)"/><path class="cls-1" d="M1023.32,1475.38s-12.36,18.13-23.79,34.72c-17.72,25.73-50.78,22.87-64.75-6.23-.3-.61-.59-1.24-.87-1.87-1.28,4.32-3.27,7.78-6,9.59-3,2-6.15,1.91-9.29,1.28-.72,12.57-1.45,25.15-2.26,37.72h74.65l36.67-75.21Z" transform="translate(-4 -1327.19)"/><path class="cls-1" d="M122.16,1338v4.91l84.77,8.89a4.57,4.57,0,0,1,1.39-.2h40.92c32.48-8.31,109.43-8.69,109.43-8.69V1338Z" transform="translate(-4 -1327.19)"/><path class="cls-1" d="M180,1451s85.26-2.82,97.44,13.55,3.05,36.12,3.05,36.12l22.33-46.28-5.08-5.64-30.45-1.7H180Z" transform="translate(-4 -1327.19)"/><path class="cls-1" d="M312,1366.42s-51.68,70.54-123.67,79.7c0,.15.08.3.11.44h64.29l67.36-80.14Z" transform="translate(-4 -1327.19)"/><path class="cls-1" d="M256.83,1447.07S212,1503.9,144.49,1530.63v10.61c0,1.3,2,2.34,4.54,2.34h30.89l87.39-96.51Z" transform="translate(-4 -1327.19)"/><path class="cls-1" d="M1687.44,1530.63c-16.18-4.5-29.25-11.11-41.7-18.16-.76,18-105.85,21.29-105.85,21.29v3.75h176.75l-.65-.26C1706.2,1535.44,1696.66,1533.19,1687.44,1530.63Z" transform="translate(-4 -1327.19)"/><path class="cls-1" d="M1821,1362.9c-14.83-4.5-26.79-11.11-38.19-18.16-.7,18-96.93,21.29-96.93,21.29v3.75h161.85l-.59-.26C1838.15,1367.71,1829.41,1365.46,1821,1362.9Z" transform="translate(-4 -1327.19)"/><path class="cls-1" d="M1784.28,1392.31s-56.4,125.86-135,142.2a5.6,5.6,0,0,1,.12.79h70.16l73.51-143Z" transform="translate(-4 -1327.19)"/><path class="cls-1" d="M1567,1327.19c-19.62,4.51-41.23,8.93-64.56,12.91-21,3.59-43.43,6.81-67,9.44v6.32l93.75-.12,58-20.72C1580.64,1332.33,1574,1329.67,1567,1327.19Z" transform="translate(-4 -1327.19)"/><path class="cls-1" d="M1600.7,1502.14a24.13,24.13,0,0,1-3.45-.26c-17.12,6-37.78,12.47-61.32,18.23-10.41,2.54-22.71.74-29.23-4.45a41.63,41.63,0,0,1-11.71-14.13v27.21a623,623,0,0,1-78.25,8.9,1.52,1.52,0,0,1,.21.33h122.49l77.82-35.83Z" transform="translate(-4 -1327.19)"/><path class="cls-1" d="M1160.83,1347.66s-5.59,41,12.1,65.6c14.76,20.49,52.1,25.23,62.52,25.23h-75.63Z" transform="translate(-4 -1327.19)"/><path class="cls-1" d="M1385,1532.24s5.59-41-12.1-65.6c-14.76-20.49-52.1-25.23-62.52-25.23H1386Z" transform="translate(-4 -1327.19)"/><path class="cls-1" d="M1219.32,1341.42a5.05,5.05,0,0,1,.06-.68h-93.84v4.88l93.78,6Z" transform="translate(-4 -1327.19)"/><path class="cls-1" d="M1276.45,1482.22s-38.19,27.59-97.81,45.47l-.2.06c-3.54,1-7.82.12-9.59-1.84l-9-10-5,13.45,2.46,4.1a344.5,344.5,0,0,1-55.59,8.46l0,.34h90.93l95.26-60Z" transform="translate(-4 -1327.19)"/><path class="cls-1" d="M747.5,1366.57s-9.35-5.09-21.37,0l12-15.27Z" transform="translate(-4 -1327.19)"/><path class="cls-1" d="M626,1525.41s-12.23,7.45-20.36,5.19-61-61.65-61-61.65h-8.14l44.87,68.11c4.82,7.33,17.36,12.2,31.39,12.2h8.69" transform="translate(-4 -1327.19)"/><path class="cls-1" d="M584.28,1342.05v6.38l117.3,7.46a12.35,12.35,0,0,1,2.3-.21h67.69c53.74-8.32,181-8.7,181-8.7v-4.93Z" transform="translate(-4 -1327.19)"/><path class="cls-1" d="M872.05,1548.57c-.5-1.28-1.34-2.56-1.79-3.51a33.28,33.28,0,0,1-1.78-4.29c-67.57-17.94-112.6-56.69-112.6-56.69H745.46l86.85,65.18h38.38A11.52,11.52,0,0,0,872.05,1548.57Z" transform="translate(-4 -1327.19)"/><path class="cls-1" d="M766,1389.19s-51.08,85.13-122.22,96.19c0,.18.08.36.11.53h63.53l66.56-96.72Z" transform="translate(-4 -1327.19)"/><path class="cls-1" d="M796.32,1444.62s8.14,41.29-31.53,41.29h60Z" transform="translate(-4 -1327.19)"/><path class="cls-1" d="M360.9,1395.34s-3,22.39,6.6,35.78c8.05,11.17,28.41,13.76,34.09,13.76H360.35Z" transform="translate(-4 -1327.19)"/><path class="cls-1" d="M508.8,1343.23s-44.78,47-114.69,77.5q-7.91,3.45-16.24,6.57a18.08,18.08,0,0,1-12.58-.25l-4.72-2-2.41,4.64,5.23,2.67c-3,1-5.95,1.87-9,2.74a94.53,94.53,0,0,0,8.07,10.4h48l111.7-102.25Z" transform="translate(-4 -1327.19)"/><path d="M863.48,1547.57c-7.55,0-10-3.77-11.1-6.61l-.13-.31-32.54-53.05H655l-21.79,35.73c-1.73,2.68-3.55,5.71-5.36,8.94-1.71,3-3.43,5.81-5.09,8.21a22.14,22.14,0,0,1-5.14,5.36,9.66,9.66,0,0,1-5.84,1.73c-3.67,0-6.42-.63-7.76-1.78,0-.39,0-2.15,2.69-6.51l112.16-181.8c2.74-4.73,8.87-7.12,18.22-7.12,10,0,16.53,2.4,19.28,7.12l112.19,182.15,0,.07a28.85,28.85,0,0,1,2.32,4.12,3,3,0,0,1,.27,2c-.05.24-.45.57-1.07.88S867.71,1547.57,863.48,1547.57ZM658.06,1483H817.2L737.63,1352.8Z" transform="translate(-4 -1327.19)"/><path d="M1755,1539.46c-25.39,0-48.62-2.34-69-6.94s-37.78-11.26-52-19.89c-14-8.52-24.94-19-32.48-31.26s-11.28-26-11.28-41.23c0-11.82,3.63-23.72,10.77-35.36,7.24-11.82,17.56-22.53,30.65-31.84s29.46-17,48.4-22.82,40.38-8.72,63.61-8.72c38.71,0,72.81,7.27,101.35,21.63,6.47,3.62,6.65,5.63,6.65,5.65a.66.66,0,0,1,0,.14h0s-1.15,1.31-7.34,1.31c-1.27,0-4.53-.45-12.22-3.45-6.46-2.52-14.24-5.34-23.13-8.39a293.59,293.59,0,0,0-30.62-8.44,167.53,167.53,0,0,0-36.23-3.83c-20.3,0-39,2.83-55.47,8.39s-30.86,12.86-42.67,21.68-21.28,19-27.88,30.15c-6.71,11.29-10.11,22.69-10.11,33.9,0,14.85,3.67,28.35,10.91,40.12s17.43,21.72,30.45,29.86,28.65,14.29,46.89,18.58c18.09,4.26,38.54,6.42,60.78,6.42,29.44,0,55.43-6,77.26-17.7,7.34-3.87,11.72-4.69,14.1-4.69a9.28,9.28,0,0,1,5.46,1.44,6,6,0,0,1,1.15,1c-.61.66-2.21,2.07-6.23,4.3a127.4,127.4,0,0,1-22,9,245,245,0,0,1-32.24,7.76A215.17,215.17,0,0,1,1755,1539.46Z" transform="translate(-4 -1327.19)"/><path d="M167.78,1544.53c-24.83,0-47.63-2.91-67.75-8.65s-37.47-13.4-51.65-22.81-25.15-20.1-32.89-32C7.86,1469.38,4,1457.14,4,1444.68s3.88-24.94,11.52-37c7.76-12.29,18.83-23.4,32.9-33S79.82,1357,99.57,1351s41.81-9.07,65.58-9.07a333.18,333.18,0,0,1,42.22,2.61,223,223,0,0,1,39.91,8.93c13,4.2,22.73,8.09,28.79,11.55,6.24,3.57,7.31,5.48,7.48,5.86a2.57,2.57,0,0,1-.72,1.09,7.26,7.26,0,0,1-3.39,1.69,14.57,14.57,0,0,1-3.6.4,24.34,24.34,0,0,1-3.09-.2,28.75,28.75,0,0,1-9.24-3.12,278.54,278.54,0,0,0-27.08-11.78,202.84,202.84,0,0,0-24.49-7.33,177.8,177.8,0,0,0-24-3.75c-8-.69-16.38-1-24.88-1a177.57,177.57,0,0,0-55.33,8.41c-17,5.58-32.11,13-44.85,22s-23.07,19.4-30.35,30.74c-7.42,11.55-11.18,23.43-11.18,35.31,0,12.27,3.76,24.4,11.18,36,7.28,11.46,17.6,21.77,30.67,30.65s28.57,16,46.47,21.35,37.61,8.09,58.66,8.09c24.21,0,44.4-2.43,60-7.22,15.76-4.83,28.4-11.26,37.57-19.12s15.81-17.12,19.38-27.23a90.81,90.81,0,0,0,5.24-30.23v-4H185.19c-11.92,0-13.39-2.36-13.4-2.38,0-1.73,4.14-3.41,13.4-3.41H285.44c10.85,0,15.77,1.6,18,2.94,2.57,1.57,3.88,5.06,3.88,10.37a71.57,71.57,0,0,1-7.26,31c-4.8,10-12.65,19.15-23.32,27.12-10.82,8.09-25.3,14.73-43,19.75S193.66,1544.53,167.78,1544.53Z" transform="translate(-4 -1327.19)"/><path d="M1392.84,1540.19c-8,0-8-3.33-8-5.33V1442H1164v92.89c0,2,0,5.33-8,5.33s-8.06-3.33-8.06-5.33V1350.09c0-2,0-5.33,8.06-5.33s8,3.34,8,5.33v87.64h220.81v-87.64c0-2.09.39-3.6,1.07-4.13.36-.28,1.93-1.2,7-1.2,8.06,0,8.06,3.34,8.06,5.33v184.77C1400.9,1536.86,1400.9,1540.19,1392.84,1540.19Z" transform="translate(-4 -1327.19)"/><path d="M1494.24,1535.91c-3.39,0-7.35-.53-7.35-2V1345.62c0-1.5,4-2,7.35-2,1.32,0,7.87.11,7.87,2.31v188C1502.11,1535.07,1498.88,1535.91,1494.24,1535.91Z" transform="translate(-4 -1327.19)"/><path d="M927.12,1547.3c-5.69,0-7.26-1.14-7.52-1.37s-1.34-1.19-1.34-4.16V1358c0-1.6.2-4.41,1.54-5.21.6-.35,3.27-1.51,12.68-1.51h90c35.94,0,63.42,5,81.68,14.86,17.69,9.56,26.29,23.17,26.29,41.61,0,17.84-8.86,31.31-27.1,41.17-18.78,10.15-46,15.3-80.87,15.3H934.91v77.59C934.91,1547.3,930.22,1547.3,927.12,1547.3Zm7.79-87.63h87.58c31.34,0,53.71-4,68.38-12.12,15.23-8.47,23-21.77,23-39.54,0-34.48-30.73-52-91.33-52H934.91Z" transform="translate(-4 -1327.19)"/><path d="M356.79,1547.57c-10.21,0-10.21-4.13-10.21-6.11v-195c0-3.15.68-5.08,2-5.72,1-.5,4.73-1.66,16.73-1.66h96.07c36,0,64,4.76,83.23,14.14,18.57,9,27.6,22,27.6,39.7,0,17.12-8.8,30.24-26.91,40.11-18.64,10.16-46.87,15.32-83.92,15.32H414.21l-1.88,7.53,135.86,72.06c4,2.26,8.4,4.57,12.86,6.83a74.59,74.59,0,0,1,10.23,6.13,13.73,13.73,0,0,1,3.83,3.81,5.39,5.39,0,0,1-.84.54,14.79,14.79,0,0,1-7.39,1.9,26,26,0,0,1-11.53-3.2l-173.08-95.6H364.73v93.13C364.73,1544.55,364.12,1547.57,356.79,1547.57Zm7.94-104.52h96.66c61.5,0,92.68-16.55,92.68-49.2s-31.18-49.2-92.68-49.2H364.73Z" transform="translate(-4 -1327.19)"/><path class="cls-1" d="M1421.28,1726.41s-5.8,26.28,12.55,42c15.31,13.11,54,16.15,64.84,16.15h-78.44Z" transform="translate(-4 -1327.19)"/><path class="cls-1" d="M1421.28,1625.81s-5.8,26.27,12.55,42c15.31,13.11,54,16.15,64.84,16.15h-78.44Z" transform="translate(-4 -1327.19)"/><path class="cls-1" d="M1596.67,1683.73s-68.84,87.45-164.73,98.81a3.44,3.44,0,0,1,.15.55h85.63l89.72-99.36Z" transform="translate(-4 -1327.19)"/><path class="cls-1" d="M1550.49,1578.1c-20.67,5.64-43.43,11.17-68,16.13-22.14,4.48-45.75,8.5-70.61,11.76v8h98.74l61.16-26C1564.84,1584.58,1557.84,1581.23,1550.49,1578.1Z" transform="translate(-4 -1327.19)"/><path class="cls-1" d="M971.34,1653.72l.29,26.7A132.57,132.57,0,0,0,971.34,1653.72Z" transform="translate(-4 -1327.19)"/><path class="cls-1" d="M1048.75,1579.31c-19.48,4.48-40.93,8.86-64.09,12.82-20.86,3.56-43.12,6.76-66.55,9.37v6.27l93.07-.11,57.63-20.58C1062.28,1584.41,1055.68,1581.77,1048.75,1579.31Z" transform="translate(-4 -1327.19)"/><path class="cls-1" d="M1082.2,1753a22.49,22.49,0,0,1-3.43-.26c-17,6-37.51,12.39-60.87,18.1-10.34,2.53-22.56.74-29-4.41a41.46,41.46,0,0,1-11.62-14v27a618.25,618.25,0,0,1-77.69,8.84,1.26,1.26,0,0,1,.21.32h121.61l77.26-35.57Z" transform="translate(-4 -1327.19)"/><path class="cls-1" d="M1345.69,1759.65s8.36,1,11.18,3.39c4.07,3.39,16.27,1.2,16.27-3.39v19.22l-14.23-5.09Z" transform="translate(-4 -1327.19)"/><path class="cls-1" d="M1145.42,1752.1s-11-1-17.3-3.76c-18.3-7.92-42.34-69-42.34-69h-6l32.87,87.74a24.47,24.47,0,0,0,23,15.71h6.37" transform="translate(-4 -1327.19)"/><path class="cls-1" d="M1262,1728s-38.51,27.81-98.62,45.84a353.69,353.69,0,0,1-77.74,14.31,1.47,1.47,0,0,1,.15.34h91.68l96-60.49Z" transform="translate(-4 -1327.19)"/><path class="cls-1" d="M1145.4,1662.41s4.07-58.79,56.94-20.35,53.88,44.66,53.88,44.66l-107.77-89.88-8.13,2.82Z" transform="translate(-4 -1327.19)"/><path class="cls-1" d="M1373.14,1710.46s-4.07,58.8-56.94,20.35-53.88-44.65-53.88-44.65L1370.09,1776l8.13-2.83Z" transform="translate(-4 -1327.19)"/><path class="cls-1" d="M764,1645.14h-8.84l-12.74,42.78c-1.63,5.47-.84,11,2.61,16.4,9.62,15.13,10.13,38.61,10.13,38.61H764Z" transform="translate(-4 -1327.19)"/><path class="cls-1" d="M956.6,1716.2s-43.13,34.31-110.48,56.55a379.79,379.79,0,0,1-38.25,10.47,74.87,74.87,0,0,0,7.77,7.6H861.9l107.62-74.62Z" transform="translate(-4 -1327.19)"/><path class="cls-1" d="M884.24,1729.25s-41.13,36.39-94.39,51.25l-1.55,7.2c-.19.88,1.15,1.69,3,1.81l22.59,1.5,78-61.25Z" transform="translate(-4 -1327.19)"/><path class="cls-1" d="M677.73,1757.92s-29.48,23.51-3.05,26.68,43.72,0,43.72,0l-63,2.71-18.3-1.36v-5.42l19.32-10.4Z" transform="translate(-4 -1327.19)"/><path class="cls-1" d="M789.57,1604.15l25.29,4.22c9,1.5,14.86,6.27,14.14,11.47l-.8,5.8,25.42-21.49Z" transform="translate(-4 -1327.19)"/><path d="M1426.92,1786.59c-8.24,0-11.54-.92-12.78-1.47-1.4-.62-1.7-3.12-1.7-5.11V1612.77l1.29,0c5.15-.13,10.45-.27,15.72-.44v70.45h167.63c7.56,0,10.9.56,12.38,1,.65.21,1,.33,1,1.63,0,.51,0,.7-1,1-1.47.47-4.81,1-12.38,1H1429.45v94.44h149.14c5.15,0,10.59-.1,16.18-.3,2.2-.08,4.34-.12,6.35-.12,3,0,5.86.09,8.46.26a46.16,46.16,0,0,1,10.22,1.64,3.42,3.42,0,0,1,1.54.78v.09c0,1-.13,1.17-1.07,1.42-1.64.42-5.09.93-12.32.93Z" transform="translate(-4 -1327.19)"/><path d="M976.51,1786.49c-3.36,0-7.27-.52-7.27-2V1597.6c0-1.46,3.91-2,7.27-2,1.3,0,7.78.11,7.78,2.27v186.62C984.29,1785.67,981.09,1786.49,976.51,1786.49Z" transform="translate(-4 -1327.19)"/><path d="M1375.63,1785.31c-5.77,0-11.14-2.19-16.44-6.69l-210.58-176.24V1779.9c0,2,0,5.41-8.15,5.41s-8.15-3.39-8.15-5.41V1594.19c0-3,.58-6,7.62-6,3.73,0,6.65.6,8.43,1.73,2.35,1.51,4.93,3.22,7.64,5.1l210.94,177.6v-179c0-2.1.39-3.61,1.1-4.27.13-.11,1.38-1.14,6.53-1.14,5.73,0,7.33,1,7.59,1.22.69.54,1.09,2.07,1.09,4.19V1779C1383.25,1782.9,1382,1785.31,1375.63,1785.31Z" transform="translate(-4 -1327.19)"/><path d="M644.89,1791.35c-3.65,0-15.56-.35-15.56-4.81,0-.69.43-2.65,4.42-6.08l210.94-173.94H650.17c-9.75,0-12.91-1.85-12.91-2.75,0-.47,0-.91,1.3-1.48,1.1-.48,4.06-1.28,11.61-1.28H848.88c9.47,0,12.91,1.82,12.91,3,0,.24-.17,2.49-6,7.85L644.3,1785.83H851.52c9.75,0,12.91,1.86,12.91,2.76s-3.16,2.76-12.91,2.76Z" transform="translate(-4 -1327.19)"/><path class="cls-1" d="M2019.08,1551.55a506,506,0,0,1-37.75,39.49l11,5.47,72.27-45Z" transform="translate(-4 -1327.19)"/></g></g></svg>