<svg xmlns="http://www.w3.org/2000/svg" width="300" height="60" viewBox="0 0 1508.26 290.63"><defs><style>.cls-1{fill:#050505;}</style></defs><g id="图层_2" data-name="图层 2"><g id="图层_2-2" data-name="图层 2"><path class="cls-1" d="M199.46,659.49a353,353,0,0,1,25.66,39.94,285.24,285.24,0,0,1,18.71,41.46h12.65v-58L215.17,647C209.77,651.07,204.43,655.18,199.46,659.49Z" transform="translate(-4 -647)"/><path class="cls-1" d="M184.56,796.49C157.9,822,114.79,858.13,60.34,885.61A399.28,399.28,0,0,1,6.93,908a147.16,147.16,0,0,0,10.85,16.2H82.39L198.58,801C193.89,799.54,189.22,798,184.56,796.49Z" transform="translate(-4 -647)"/><path class="cls-1" d="M324,672s-7.49,55,16.21,87.88C360,787.3,410,793.65,424,793.65H322.67Z" transform="translate(-4 -647)"/><path class="cls-1" d="M624.34,919.23s7.49-55-16.21-87.88c-19.77-27.44-69.79-33.8-83.75-33.8H625.69Z" transform="translate(-4 -647)"/><path class="cls-1" d="M402.38,663.6a5.47,5.47,0,0,1,.08-.9H276.74v6.54l125.64,8Z" transform="translate(-4 -647)"/><path class="cls-1" d="M478.91,852.23s-51.16,37-131,60.92l-.27.07c-4.75,1.29-10.48.16-12.84-2.47l-12.1-13.45-6.76,18,3.3,5.49a460.74,460.74,0,0,1-74.46,11.33l0,.45H366.6l127.62-80.37Z" transform="translate(-4 -647)"/><path class="cls-1" d="M1150.05,757.36s-3.76,27.65,8.15,44.19c10,13.8,35.1,17,42.12,17h-51Z" transform="translate(-4 -647)"/><path class="cls-1" d="M992.68,663v6.54L1220,678.91A676.38,676.38,0,0,0,1307.1,677c80.41-7.11,205.16-7.49,205.16-7.49V663Z" transform="translate(-4 -647)"/><path class="cls-1" d="M622.55,663v6.54l227.31,9.41A676.34,676.34,0,0,0,937,677c80.41-7.11,205.17-7.49,205.17-7.49V663Z" transform="translate(-4 -647)"/><path class="cls-1" d="M1339.49,692.24s-55.31,58.08-141.66,95.73a397.73,397.73,0,0,1-49,17.72,115.72,115.72,0,0,0,10,12.86h59.32l138-126.31Z" transform="translate(-4 -647)"/><path class="cls-1" d="M1267.88,838.23s-16.2,23.76-31.18,45.5c-23.23,33.73-66.55,30-84.86-8.16-.39-.81-.76-1.63-1.13-2.45-1.69,5.66-4.29,10.19-7.82,12.57-3.87,2.61-8.06,2.5-12.18,1.67-.94,16.47-1.89,33-3,49.44h97.83l48.06-98.57Z" transform="translate(-4 -647)"/><path class="cls-1" d="M926.49,721.81s28.36-36.06,67.54-14.27-10.81-14.27-10.81-14.27l-45.93-15,5.41,10.52Z" transform="translate(-4 -647)"/><path class="cls-1" d="M935.8,675.54s-56,150.06-140.36,222.55c-7.63,6.55-23.38,8.43-35.27,4.28l-32.25-11.26c-2.8,5.17,25.8,17.46,43.88,24.62a136,136,0,0,1-39.57,17.51c.08.48.14,1,.18,1.43H838.23L949.1,675.54Z" transform="translate(-4 -647)"/><path d="M634.83,931.24c-12.15,0-12.15-5.73-12.15-8.49V799.67H329.6V922.75c0,2.76,0,8.49-12.15,8.49s-12.15-5.73-12.15-8.49V675.22c0-2.75,0-8.49,12.15-8.49s12.15,5.74,12.15,8.49v116H622.68v-116c0-2.31.34-5.34,2-6.6.91-.7,3.44-1.89,10.19-1.89,12.15,0,12.15,5.74,12.15,8.49V922.75C647,925.51,647,931.24,634.83,931.24Z" transform="translate(-4 -647)"/><path d="M865.16,937.63c-34.09,0-64.18-3.82-89.44-11.35s-46.35-17.73-63-30.39-29-27.14-37.11-43.31a113,113,0,0,1-12.22-51.11A110.87,110.87,0,0,1,676,750.58c8.35-16.3,21-31,37.49-43.53s37.8-22.88,63-30.39,55.12-11.35,88.74-11.35,63.33,3.88,88.35,11.54,46.16,17.87,63,30.42,29.45,27,37.8,43.32a110.8,110.8,0,0,1,12.55,50.88,114.16,114.16,0,0,1-12.22,51.31c-8.1,16.27-20.58,30.84-37.1,43.29s-37.83,22.71-63,30.21S899.23,937.63,865.16,937.63Zm0-263.14c-29.75,0-56,3.54-78.1,10.53s-40.78,16.58-55.38,28.43-25.88,25.6-33.36,40.76A106,106,0,0,0,687,801.47a109.8,109.8,0,0,0,10.92,47.6c7.26,15.2,18.39,28.81,33.08,40.45s33.34,21,55.7,28,48.67,10.53,78.44,10.53c27.37,0,52.29-3,74.07-8.92s40.72-14.43,56-25.19c15.45-10.87,27.33-24.23,35.31-39.7s12-32.83,12-51.61a110.86,110.86,0,0,0-10.92-47.78c-7.24-15.31-18.36-29.11-33-41s-33.25-21.48-55.36-28.62S894.93,674.49,865.16,674.49Z" transform="translate(-4 -647)"/><path d="M1141.81,933.72c-7.51,0-10-1.47-10.69-2.11-1.46-1.29-2.17-3.38-2.17-6.38V684.34c0-2.88.46-6.59,2.62-7.89,1.09-.65,5-2.16,17.26-2.16h118c47.31,0,83.52,6.6,107.63,19.62,23.63,12.78,35.12,31,35.12,55.63,0,23.88-11.83,41.89-36.17,55.05-24.8,13.41-60.66,20.21-106.58,20.21H1153.25V925.23C1153.25,932.7,1147.75,933.72,1141.81,933.72Zm11.44-117.32h113.54c40.29,0,70.24-5.29,89-15.73,19.54-10.86,29.44-27.93,29.44-50.74,0-44.36-39.85-66.85-118.45-66.85H1153.25Z" transform="translate(-4 -647)"/><path d="M132.54,933a416.68,416.68,0,0,1-47.64-2.7,302.57,302.57,0,0,1-43.3-8.09C6.08,912.57,4.11,906.59,4,905.93c0-.15.29-1,2.28-2.34a12.93,12.93,0,0,1,7.63-2.21,22.42,22.42,0,0,1,3.54.31,115.5,115.5,0,0,1,19.65,5.47C65.93,917.68,99,923,135.35,923a182.49,182.49,0,0,0,41.28-4.6A146.27,146.27,0,0,0,212,905.57c10.44-5.53,19-12,25.35-19.24,6.72-7.62,10.13-15.94,10.13-24.71a37.07,37.07,0,0,0-9-24A84.24,84.24,0,0,0,216,819.13a178,178,0,0,0-31.61-14.19c-11.76-4.05-23.94-7.57-36.2-10.46-19.17-4.67-36.86-9.14-52.56-13.25s-29-8.78-40-14c-10.66-5.06-19.07-11.16-25-18.11-5.73-6.74-8.52-15.15-8.52-25.71,0-8.47,2.9-16,8.87-23,6.17-7.23,14.61-13.53,25.07-18.73a159.55,159.55,0,0,1,37.33-12.56,216.8,216.8,0,0,1,45.5-4.59,368.9,368.9,0,0,1,45.5,2.9,256.11,256.11,0,0,1,40.09,7.87c11,3.24,19.31,6.85,24.79,10.74,1.92,1.38,3.12,2.76,3.18,3.72.06.74-.62,1.83-1.86,3s-3.67,1.91-6.84,1.91a29.52,29.52,0,0,1-3.61-.24,75.39,75.39,0,0,1-19-5.2,267.42,267.42,0,0,0-35.72-10.54,190.9,190.9,0,0,0-43-5c-27.63,0-50.43,4.27-67.75,12.7-18.27,8.88-27.53,21.33-27.53,37a32.46,32.46,0,0,0,9.57,23.49C62.62,753,71,758.39,81.43,763a260.5,260.5,0,0,0,36.73,12.5c14.06,3.77,29.67,7.79,46.42,11.92,15.18,3.84,29.73,8.08,43.22,12.6a178.17,178.17,0,0,1,34.33,15.26c9.3,5.54,16.69,12.12,22,19.57,5.1,7.21,7.69,16,7.69,26,0,9.8-3.49,18.73-10.66,27.3-7.33,8.78-17.54,16.53-30.33,23A200.49,200.49,0,0,1,185.7,927,235.26,235.26,0,0,1,132.54,933Z" transform="translate(-4 -647)"/></g></g></svg>