<svg xmlns="http://www.w3.org/2000/svg" width="350" height="100" viewBox="0 0 1727.6 465.62"><defs><style>.cls-1{fill:#050505;}</style></defs><g id="图层_2" data-name="图层 2"><g id="图层_4" data-name="图层 4"><path class="cls-1" d="M744.92,550a252.84,252.84,0,0,1,18.55,28.87,207.43,207.43,0,0,1,13.53,30h9.14V567l-29.86-26C752.37,543.93,748.51,546.9,744.92,550Z" transform="translate(0 -537.3)"/><path class="cls-1" d="M734.15,649.06c-19.28,18.46-50.44,44.56-89.8,64.43a289.14,289.14,0,0,1-38.62,16.15,104,104,0,0,0,7.85,11.71h46.7l84-89Z" transform="translate(0 -537.3)"/><path class="cls-1" d="M568.9,537.3c-19.3,4.42-40.56,8.74-63.51,12.62-20.67,3.5-42.72,6.65-65.93,9.2v6.22h92.2L588.77,545C582.3,542.37,575.77,539.75,568.9,537.3Z" transform="translate(0 -537.3)"/><path class="cls-1" d="M602,709.3a23.29,23.29,0,0,1-3.39-.26C581.78,715,561.47,721.31,538.32,727c-10.24,2.5-22.34.72-28.75-4.37a41.06,41.06,0,0,1-11.52-13.91v26.77a615,615,0,0,1-77,8.75,1.46,1.46,0,0,1,.21.32H541.77L618.3,709.3Z" transform="translate(0 -537.3)"/><path class="cls-1" d="M1275.4,567.32s-9-4.89-20.5,0l11.53-14.66Z" transform="translate(0 -537.3)"/><path class="cls-1" d="M1158.72,719.81s-11.74,7.15-19.55,5-58.6-59.19-58.6-59.19h-7.81l43.07,65.4c4.63,7,16.67,11.71,30.14,11.71h8.34" transform="translate(0 -537.3)"/><path class="cls-1" d="M1118.71,543.79v6.12l112.62,7.16a11.22,11.22,0,0,1,2.2-.2h65c51.59-8,173.8-8.36,173.8-8.36v-4.72Z" transform="translate(0 -537.3)"/><path class="cls-1" d="M1395,742.05c-.48-1.24-1.28-2.46-1.72-3.37a32.07,32.07,0,0,1-1.71-4.12c-64.87-17.22-108.09-54.43-108.09-54.43h-10l83.38,62.58h36.84A12.31,12.31,0,0,0,1395,742.05Z" transform="translate(0 -537.3)"/><path class="cls-1" d="M1293.13,589s-49,81.73-117.34,92.34a4.64,4.64,0,0,1,.11.51h61L1300.8,589Z" transform="translate(0 -537.3)"/><path class="cls-1" d="M1322.28,642.26s7.81,39.63-30.27,39.63h57.61Z" transform="translate(0 -537.3)"/><path class="cls-1" d="M958,713.67a.68.68,0,0,1,.12.62c-3.28,9.48-5.72,19.14-8.94,28.77H1065.5l-4-3.63c-116.24,0-102.08-26.28-95.26-34.13Z" transform="translate(0 -537.3)"/><path class="cls-1" d="M898.71,539.5v4.84l168.06,6.95a499.28,499.28,0,0,0,64.41-1.42c59.45-5.26,151.69-5.53,151.69-5.53V539.5Z" transform="translate(0 -537.3)"/><path class="cls-1" d="M1042.87,646.06s-40.53,43.05-104.14,71.05a292,292,0,0,1-36.14,13.2A87.13,87.13,0,0,0,910,739.8l43.86-.12L1055.11,646Z" transform="translate(0 -537.3)"/><path class="cls-1" d="M999.58,543s45.94,9.44,45.94,40V545.8Z" transform="translate(0 -537.3)"/><path class="cls-1" d="M310.54,726s6.83,4.89,15.62,0l-8.79,14.66Z" transform="translate(0 -537.3)"/><path class="cls-1" d="M0,546.1v4.72l164.33,6.81a487.76,487.76,0,0,0,63-1.4c58.13-5.14,148.32-5.41,148.32-5.41V546.1Z" transform="translate(0 -537.3)"/><path class="cls-1" d="M423.49,690.72s-37,26.71-94.72,44a340.16,340.16,0,0,1-74.68,13.74,2.41,2.41,0,0,1,.15.33H342.3l92.26-58.1Z" transform="translate(0 -537.3)"/><path class="cls-1" d="M299.8,713l6.51,3.22c6.43,3.17,16,3.38,22.84.48l8.73-3.7-20.51,27.69Z" transform="translate(0 -537.3)"/><path d="M1386.75,740.93c-5.52,0-8.76-1.93-10.51-6.25l-.12-.31-31.3-51H1186.53l-21,34.38c-1.66,2.57-3.41,5.49-5.15,8.59-1.64,2.91-3.28,5.56-4.88,7.87a21.16,21.16,0,0,1-4.89,5.11,9.16,9.16,0,0,1-5.52,1.63c-3.44,0-6-.58-7.3-1.63,0-.44.13-2.14,2.58-6.09l107.67-174.54c2.6-4.48,8.44-6.75,17.35-6.75,9.59,0,15.77,2.27,18.37,6.76l107.76,174.94a26.73,26.73,0,0,1,2.21,3.93,2.69,2.69,0,0,1,.26,1.8c0,.14-.34.43-.94.73S1390.93,740.93,1386.75,740.93Zm-197.5-61.72h153.36L1265.93,553.8Z" transform="translate(0 -537.3)"/><path d="M497.32,742.44c-3.57,0-7.17-.59-7.17-1.93V555.36c0-1.33,3.6-1.93,7.17-1.93,1.28,0,7.67.11,7.67,2.21V740.51C505,741.65,501.84,742.44,497.32,742.44Z" transform="translate(0 -537.3)"/><path d="M696.54,746.62a297.55,297.55,0,0,1-34.31-2,217.93,217.93,0,0,1-31.15-5.81c-21-5.7-25.35-9.5-26.2-10.64a5.5,5.5,0,0,1,1-.81,8.25,8.25,0,0,1,4.9-1.41,14.57,14.57,0,0,1,2.38.21,82.05,82.05,0,0,1,14,3.9c21,7.65,45,11.53,71.4,11.53a133.31,133.31,0,0,0,30.1-3.35,107.37,107.37,0,0,0,25.84-9.39,65.87,65.87,0,0,0,18.64-14.16c5-5.72,7.6-12,7.6-18.59A27.83,27.83,0,0,0,774,678.08a62,62,0,0,0-16.54-13.61,130.33,130.33,0,0,0-23.05-10.35c-8.55-2.94-17.39-5.49-26.28-7.59-13.82-3.37-26.6-6.59-38-9.57a165.31,165.31,0,0,1-28.74-10.05c-7.56-3.59-13.52-7.9-17.7-12.81-4-4.66-5.9-10.5-5.9-17.87A23.7,23.7,0,0,1,624,580.34a55.51,55.51,0,0,1,17.77-13.27,114.13,114.13,0,0,1,26.73-9,155.51,155.51,0,0,1,32.66-3.3,267.11,267.11,0,0,1,32.75,2.08,184.1,184.1,0,0,1,28.81,5.66c7.82,2.31,13.74,4.87,17.6,7.61,1.61,1.15,1.82,1.82,1.84,1.87h0a3.85,3.85,0,0,1-1,1.28c-1,.88-2.8,1.07-4.18,1.07a20.29,20.29,0,0,1-2.48-.16A53,53,0,0,1,761,570.51a194.55,194.55,0,0,0-26-7.67,139.28,139.28,0,0,0-31.36-3.63c-20.15,0-36.79,3.12-49.47,9.29-13.62,6.63-20.52,16-20.52,27.73A24.55,24.55,0,0,0,640.89,614c4.41,4.49,10.55,8.49,18.26,11.87A189.15,189.15,0,0,0,685.86,635c10.2,2.74,21.49,5.65,33.58,8.63,10.94,2.76,21.43,5.82,31.16,9.08a128.23,128.23,0,0,1,24.6,10.94,50.16,50.16,0,0,1,15.54,13.83c3.6,5.1,5.36,11,5.36,18.15,0,6.82-2.44,13-7.45,19-5.21,6.23-12.47,11.74-21.58,16.36a143.89,143.89,0,0,1-32.35,11.38A168.29,168.29,0,0,1,696.54,746.62Z" transform="translate(0 -537.3)"/><path d="M926.68,744.51a271.44,271.44,0,0,1-53.2-4.83c-15.84-3.18-29.56-7.63-40.8-13.22-11-5.48-19.51-12.08-25.35-19.65a38.36,38.36,0,0,1-8.51-24.11V554.82c0-2,0-5.24,7.94-5.24s7.94,3.28,7.94,5.24V661.05a114.37,114.37,0,0,0,4,31.25,51.12,51.12,0,0,0,16.85,25.5c8.22,6.91,19.85,12.28,34.56,16,14.43,3.62,33.62,5.46,57,5.46,35.09,0,62.33-4.81,81-14.29,19.53-9.93,29.44-24.34,29.44-42.82V554.82c0-2,0-5.24,7.94-5.24s7.94,3.28,7.94,5.24V682.7a38.7,38.7,0,0,1-8.51,24.4c-5.83,7.57-14.28,14.18-25.12,19.65-11,5.59-24.58,10-40.24,13.07A275.77,275.77,0,0,1,926.68,744.51Z" transform="translate(0 -537.3)"/><path d="M317.7,745a19.68,19.68,0,0,1-8.23-1.61c-1.46-.66-3.78-2.45-6.61-7.17L193.68,561.77a7.54,7.54,0,0,1-1.42-3.85,4.5,4.5,0,0,1,1.38-.69,16.86,16.86,0,0,1,6-1.05,20.51,20.51,0,0,1,2.19.12c2.31.25,4.43,1.88,6.47,5L318.23,738l109-178c1-1.74,3-4,8.18-4,3.53.16,6.18.86,7.89,2.06,0,.32-.14,1.42-1.55,3.67L332.61,736.15C328.63,742.13,323.75,745,317.7,745Z" transform="translate(0 -537.3)"/><path class="cls-1" d="M1434.15,669.34s-6.69,30.33,14.49,48.47c17.67,15.14,62.36,18.64,74.83,18.64H1433Z" transform="translate(0 -537.3)"/><path class="cls-1" d="M1403.55,541.46v13.68h26.12C1474,546.78,1579,546.4,1579,546.4v-4.94Z" transform="translate(0 -537.3)"/><path d="M1435.88,740.58c-5.1,0-17-.54-17-5.57V552.79a31.1,31.1,0,0,0,6.93.85,20.32,20.32,0,0,0,4.34-.44c1.7-.38,3.56-.8,5.47-1.25V736h133.1c9.58,0,11.6,1.91,11.6,2.28s-2,2.28-11.6,2.28Z" transform="translate(0 -537.3)"/><path class="cls-1" d="M1684,738.9a478.35,478.35,0,0,1-36.15,37.81L1658.4,782l69.2-43.05Z" transform="translate(0 -537.3)"/><path class="cls-1" d="M318.18,927.25s-6.55,29.69,14.18,47.45c17.3,14.82,61.06,18.25,73.26,18.25H317Z" transform="translate(0 -537.3)"/><path class="cls-1" d="M288.22,802v13.4h25.57c43.4-8.18,146.21-8.56,146.21-8.56V802Z" transform="translate(0 -537.3)"/><path class="cls-1" d="M426.18,928.25s-6.55,29.69,14.18,47.45c17.3,14.82,61.06,18.25,73.26,18.25H425Z" transform="translate(0 -537.3)"/><path class="cls-1" d="M396.22,803v13.4h25.57c43.4-8.18,146.21-8.56,146.21-8.56V803Z" transform="translate(0 -537.3)"/><path class="cls-1" d="M716.34,972a.68.68,0,0,1,.12.62c-3.28,9.49-5.73,19.17-9,28.8H824l-4-3.63c-116.38,0-102.2-26.32-95.37-34.18Z" transform="translate(0 -537.3)"/><path class="cls-1" d="M629,797.65v4.84l168.28,7A498.58,498.58,0,0,0,861.76,808c59.53-5.26,151.88-5.54,151.88-5.54v-4.84Z" transform="translate(0 -537.3)"/><path class="cls-1" d="M801.34,904.34s-40.58,43.1-104.26,71.14a293,293,0,0,1-36.2,13.22,88.43,88.43,0,0,0,7.46,9.5l43.91-.12L813.6,904.31Z" transform="translate(0 -537.3)"/><path class="cls-1" d="M173.61,861.86l.29,26.54A131.83,131.83,0,0,0,173.61,861.86Z" transform="translate(0 -537.3)"/><path class="cls-1" d="M250.55,787.9c-19.36,4.45-40.68,8.81-63.7,12.74-20.74,3.54-42.86,6.72-66.15,9.31v6.24l92.51-.11,57.28-20.45C264,793,257.44,790.35,250.55,787.9Z" transform="translate(0 -537.3)"/><path class="cls-1" d="M283.8,960.53a23.58,23.58,0,0,1-3.41-.25c-16.9,6-37.28,12.31-60.5,18-10.28,2.51-22.42.72-28.85-4.39a41.18,41.18,0,0,1-11.56-14v26.85a614.79,614.79,0,0,1-77.21,8.78,1.52,1.52,0,0,1,.21.33H223.34l76.8-35.36Z" transform="translate(0 -537.3)"/><path d="M178.75,993.8c-3.59,0-7.21-.6-7.21-1.94V806.08c0-1.34,3.62-1.94,7.21-1.94,1.29,0,7.71.1,7.71,2.23V991.86C186.46,993,183.29,993.8,178.75,993.8Z" transform="translate(0 -537.3)"/><path d="M319.88,996.91c-5,0-16.54-.52-16.54-5.37V813.24a30.11,30.11,0,0,0,6.71.81,19.55,19.55,0,0,0,4.25-.43c1.65-.37,3.43-.77,5.26-1.2V992.61H450c9.78,0,11.26,2,11.27,2a.58.58,0,0,1,0,.1.63.63,0,0,1,0,.11s-1.49,2-11.27,2Z" transform="translate(0 -537.3)"/><path d="M427.88,997.91c-5,0-16.54-.52-16.54-5.37V814.24a30.11,30.11,0,0,0,6.71.81,19.55,19.55,0,0,0,4.25-.43c1.65-.37,3.43-.77,5.26-1.2V993.61H558c9.78,0,11.26,2,11.27,2a.58.58,0,0,1,0,.1.63.63,0,0,1,0,.11s-1.49,2-11.27,2Z" transform="translate(0 -537.3)"/><path d="M685,1002.92a272.87,272.87,0,0,1-53.27-4.83c-15.86-3.19-29.6-7.65-40.85-13.25-11-5.47-19.54-12.09-25.38-19.67A38.35,38.35,0,0,1,557,941V813c0-2,0-5.25,8-5.25s7.95,3.28,7.95,5.25V919.35A114.66,114.66,0,0,0,577,950.64a51.24,51.24,0,0,0,16.87,25.53c8.22,6.91,19.87,12.3,34.6,16,14.45,3.63,33.66,5.47,57.11,5.47,35.13,0,62.41-4.82,81.09-14.31,19.55-9.94,29.47-24.37,29.47-42.87V813c0-2,0-5.25,8-5.25s8,3.28,8,5.25V941a38.78,38.78,0,0,1-8.52,24.44c-5.84,7.58-14.3,14.2-25.15,19.68-11.06,5.59-24.61,10-40.29,13.09A276.45,276.45,0,0,1,685,1002.92Z" transform="translate(0 -537.3)"/></g></g></svg>