<svg xmlns="http://www.w3.org/2000/svg" width="300" height="60" viewBox="0 0 1452.71 285.51"><defs><style>.cls-1{fill:#050505;}</style></defs><g id="图层_2" data-name="图层 2"><g id="图层_2-2" data-name="图层 2"><path class="cls-1" d="M1187.06,93.17s7.59,39,31.61,29.57l-20.23,16.56-8.85-4.73Z"/><polygon class="cls-1" points="1434.84 7.46 1307.18 7.46 1307.18 14.04 1434.84 24.66 1434.84 7.46"/><path class="cls-1" d="M1072.7,31.92v5.67l100.06,8.17a151.18,151.18,0,0,0,38.35-1.67c35.39-6.17,90.31-6.5,90.31-6.5V31.92Z"/><path class="cls-1" d="M1187.06,93.17s8.27,14.44,29.08,13.61c19-.75,69.55-13.61,69.55-13.61L1225,122.66s-18,8.43-17.84,9.51S1188.76,121,1188.76,121l-6.76-8.13Z"/><path class="cls-1" d="M1372.41,236.87h0l-8.35-12.12-20.24-4.53,4.42,6.33c3.56,5.12-.13,11-8.46,13.45-16.23,4.73-33.43,9.31-51.51,13.57a982.59,982.59,0,0,1-173.07,25.05,2.36,2.36,0,0,1,.35.58h204.09L1370.6,254l17.25-8.54C1382.77,242.53,1377.65,239.66,1372.41,236.87Z"/><path class="cls-1" d="M855.51,87.35s-3.57,28.21,7.73,45.08c9.43,14.08,33.29,17.34,39.94,17.34H854.87Z"/><path class="cls-1" d="M1093.58,283.34a11.38,11.38,0,0,1,1.54-1c.57-.49,1.12-1,1.65-1.49a50.57,50.57,0,0,0,5.15-5.72c.2-.26.64-.93.9-1.33q-3.9-1.69-7.71-3.48a208.13,208.13,0,0,1-24.08-13l-2.12.51a995.22,995.22,0,0,1-175.36,25.37,3.46,3.46,0,0,1,.36.59h195.85A24.76,24.76,0,0,1,1093.58,283.34Z"/><path class="cls-1" d="M1026.85,24.7s-51.23,57.86-131.22,95.37q-9,4.25-18.59,8.09a19.34,19.34,0,0,1-14.39-.31l-5.4-2.49-2.75,5.72,6,3.27c-3.39,1.17-6.81,2.31-10.28,3.38a115.86,115.86,0,0,0,9.23,12.8h55L1042.19,24.7Z"/><path class="cls-1" d="M448.93,16.3v6.41l207.22,9.22A571.26,571.26,0,0,0,735.55,30c73.3-7,187-7.33,187-7.33V16.3Z"/><path class="cls-1" d="M726,74s25.86-35.35,61.57-14-9.85-14-9.85-14L735.84,31.28l4.93,10.31Z"/><path class="cls-1" d="M735.71,31.28s-51,147.12-127.94,218.19c-7,6.43-21.32,8.27-32.16,4.2l-29.4-11c-2.54,5.07,23.53,17.13,40,24.14-11.57,7.88-23.62,13.82-36.07,17.17.07.47.12.93.16,1.4h96.47L747.84,31.28Z"/><path class="cls-1" d="M93.43,235.25a29.4,29.4,0,0,0,27.17,14.34A45.14,45.14,0,0,0,151,235.25l-17.58,35.36H98.22Z"/><path class="cls-1" d="M413.22,235.24a33.06,33.06,0,0,1-30.57,16.13,50.72,50.72,0,0,1-34.16-16.13L368.27,275h39.56Z"/><path class="cls-1" d="M504.09,272.26c-49.22-1.26-76.84-9.8-91.73-20.71-2.29,2.52-5.84,4.54-10.64,5.6-5.27,1.17-11,1.12-16.59.75-1.28,7.34-2.58,14.69-4,22H509.34Q506.75,276.09,504.09,272.26Z"/><path class="cls-1" d="M100.45,18.76V26L228.67,36.5a194,194,0,0,0,49.13-2.14C323.15,26.45,393.52,26,393.52,26V18.76Z"/><path class="cls-1" d="M245.76,35.7l-23.4,44.92,16.89-11.86c3.32-2.33,9.27-2.44,12.82-.24l19.55,12.1Z"/><path d="M1445.07,278.4a19.48,19.48,0,0,1-2.11-.12,35.09,35.09,0,0,1-14.81-5L1192.71,136.55V269.28c0,3.32-.57,5.8-1.62,7-.14.15-1.64,1.6-8.84,1.6-6.86,0-9.08-1.42-9.72-2-1.36-1.3-2-3.5-2-6.55V44.49h22.23v90.3L1388.52,31.86c4.52-2.43,9.32-5.17,14.33-8.16a135.05,135.05,0,0,1,14.35-7.49,17.29,17.29,0,0,0,8.6,5.24c2,.57,3.87,1.07,5.67,1.48L1213.28,135.06l232.53,132.2c5.06,3,6.37,5.27,6.7,6.34.45,1.47.13,2.11-.65,2.78A10.85,10.85,0,0,1,1445.07,278.4Z"/><path d="M670.09,285.51c-31,0-58.38-3.73-81.35-11.1s-42.15-17.33-57.25-29.71-26.4-26.58-33.8-42.43a117.9,117.9,0,0,1-11.14-50.18A115.37,115.37,0,0,1,498,102.14c7.6-16,19.08-30.32,34.13-42.65s34.37-22.38,57.25-29.72,50.12-11.1,80.71-11.1S727.7,22.47,750.44,30s42,17.48,57.32,29.75,26.81,26.47,34.41,42.43a115.55,115.55,0,0,1,11.46,50,119.22,119.22,0,0,1-11.15,50.38c-7.39,15.95-18.75,30.21-33.78,42.41s-34.4,22.2-57.27,29.53S701.09,285.51,670.09,285.51Zm0-258c-27.19,0-51.2,3.48-71.38,10.35s-37.28,16.31-50.63,27.95a119.24,119.24,0,0,0-30.45,40,110.27,110.27,0,0,0-10.28,46.26,114.29,114.29,0,0,0,9.94,46.6,111.67,111.67,0,0,0,30.19,39.7c13.35,11.39,30.48,20.66,50.92,27.55s44.48,10.35,71.69,10.35c25,0,47.78-3,67.69-8.77S775,253.33,789,242.75a106.38,106.38,0,0,0,32.24-39c7.27-15.15,10.95-32.15,10.95-50.54a115.44,115.44,0,0,0-9.94-46.78c-6.6-15-16.75-28.55-30.15-40.25s-30.39-21.12-50.6-28.14S697.29,27.52,670.09,27.52Z"/><path d="M850.7,280.21c-12.65,0-12.65-5.9-12.65-8.74V25.73c0-3.07.49-7,2.84-8.2,1.54-.79,6.17-2.14,19.8-2.14H973.24c42.2,0,75.07,6,97.7,17.87,22.09,11.57,32.82,28.26,32.82,51,0,22-10.46,38.89-32,51.51-21.91,12.85-55.07,19.37-98.54,19.37H902.88l172.27,98.28c4.75,2.84,9.84,5.75,15,8.6a85.38,85.38,0,0,1,12.08,7.78c3.4,2.71,4.63,4.67,5.07,5.84,0,.09,0,.14,0,.15h0a4.84,4.84,0,0,1-1.68,1.39,16.92,16.92,0,0,1-8.88,2.46c-4.11,0-8.73-1.38-13.73-4.1L880.44,155.16H860.69V271.47C860.69,276,859.48,280.21,850.7,280.21Zm10-133.78H973.24c71.59,0,107.89-20.51,107.89-61s-36.3-60.95-107.89-60.95H860.69Z"/><path d="M384,281.65c-15.57,0-25.7-5.16-31-15.77L248.29,47.42,145.49,266c-5.25,10.53-15.59,15.69-31.58,15.69-9,0-15.73-1.34-20-4-4-2.51-7-7-8.83-13.36L25.64,34.78a22.76,22.76,0,0,1,0-9.86c.19-.85,2.57-2.45,10.18-2.45,3.4,0,6,.59,7.62,1.75.67.48,2.42,2.29,3.84,8.53L96.58,226.1c.86,3.9,2.17,8.91,3.88,14.91a111.61,111.61,0,0,0,6,16.47c2.57,5.54,5.53,9,9,10.58a7.05,7.05,0,0,0,2.9.63c5.2,0,8.23-5.52,10.06-9.71L235.3,32.81A26.52,26.52,0,0,1,241,24.54a9.69,9.69,0,0,1,6.65-2.07c3.11,0,5.44.57,6.56,1.61s3,3.35,5.87,8.81c18.2,38.24,36.72,76.36,55,113.29,17.37,35,35.79,72.11,56.33,113.31,3.33,6.33,7.32,9.49,11.9,9.49,3.45,0,8-1.78,10.27-10.25l57-226,0-.11c.7-3.58,1.87-6.27,3.48-8,1.3-1.41,4.35-2.17,8.6-2.17,7.28,0,9.68,1.53,9.94,2.35.82,2.69.71,6-.36,9.8L412.79,264.36c-1.43,5.1-4.62,9.16-9.76,12.34A35.62,35.62,0,0,1,384,281.65Z"/></g><g id="图层_4" data-name="图层 4"><path class="cls-1" d="M0,11.9A334.3,334.3,0,0,1,24.45,50a271.83,271.83,0,0,1,17.83,39.5h12V34.22L15,0C9.82,3.88,4.74,7.79,0,11.9Z"/></g></g></svg>